<?xml version="1.0" encoding="UTF-8"?>
<!DOCTYPE svg PUBLIC "-//W3C//DTD SVG 1.1//EN" "http://www.w3.org/Graphics/SVG/1.1/DTD/svg11.dtd">
<!-- Creator: CorelDRAW 2020 (64-Bit) -->
<svg xmlns="http://www.w3.org/2000/svg" xml:space="preserve" width="256px" height="75px" version="1.1" style="shape-rendering:geometricPrecision; text-rendering:geometricPrecision; image-rendering:optimizeQuality; fill-rule:evenodd; clip-rule:evenodd"
viewBox="0 0 9.49 2.78"
 xmlns:xlink="http://www.w3.org/1999/xlink"
 xmlns:xodm="http://www.corel.com/coreldraw/odm/2003">
 <defs>
  <style type="text/css">
   <![CDATA[
    .fil0 {fill:#1C91FF;fill-rule:nonzero}
    .fil1 {fill:#FF551C;fill-rule:nonzero}
    .fil2 {fill:url(#id0);fill-rule:nonzero}
   ]]>
  </style>
  <linearGradient id="id0" gradientUnits="userSpaceOnUse" x1="1.95" y1="1.39" x2="7.55" y2="1.39">
   <stop offset="0" style="stop-opacity:1; stop-color:#F99E03"/>
   <stop offset="0.00392157" style="stop-opacity:1; stop-color:#F9B502"/>
   <stop offset="0.188235" style="stop-opacity:1; stop-color:#FACC00"/>
   <stop offset="0.301961" style="stop-opacity:1; stop-color:#BFC60D"/>
   <stop offset="0.490196" style="stop-opacity:1; stop-color:#83C01B"/>
   <stop offset="0.541176" style="stop-opacity:1; stop-color:#60BC23"/>
   <stop offset="1" style="stop-opacity:1; stop-color:#3CB82C"/>
  </linearGradient>
 </defs>
 <g id="Layer_x0020_1">
  <metadata id="CorelCorpID_0Corel-Layer"/>
  <g id="_2679544824704">
   <path class="fil0" d="M0 0.04l0.46 0 0 1.96 0.88 -1.18 0.55 0 -0.71 0.96 0.7 0.97 -0.55 0 -0.43 -0.59 -0.44 0.59 -0.46 0 0 -2.71z"/>
   <path class="fil1" d="M1.97 0.26c0,-0.07 0.02,-0.13 0.07,-0.18 0.05,-0.05 0.11,-0.08 0.18,-0.08 0.08,0 0.14,0.03 0.18,0.08 0.05,0.05 0.08,0.11 0.08,0.18 0,0.07 -0.03,0.13 -0.08,0.18 -0.04,0.05 -0.1,0.07 -0.18,0.07 -0.07,0 -0.13,-0.02 -0.18,-0.07 -0.05,-0.05 -0.07,-0.11 -0.07,-0.18zm0.02 0.56l0.47 0 0 1.93 -0.47 0 0 -1.93z"/>
   <path class="fil2" d="M3.61 2.36c0.1,0 0.2,-0.03 0.28,-0.07 0.09,-0.05 0.16,-0.11 0.23,-0.18 0.07,-0.07 0.13,-0.16 0.2,-0.25 0.06,-0.1 0.12,-0.19 0.18,-0.29 0.06,-0.1 0.13,-0.19 0.2,-0.29 0.08,-0.09 0.16,-0.18 0.25,-0.25 0.09,-0.07 0.2,-0.13 0.32,-0.18 0.12,-0.04 0.26,-0.06 0.42,-0.06 0.12,0 0.23,0.02 0.33,0.06 0.09,0.04 0.17,0.1 0.21,0.16l0 -0.97 0.47 0 0 1.75c0,0.15 -0.03,0.29 -0.08,0.41 -0.05,0.13 -0.12,0.23 -0.22,0.32 -0.09,0.08 -0.19,0.15 -0.32,0.19 -0.12,0.05 -0.25,0.07 -0.39,0.07 -0.23,0 -0.42,-0.05 -0.59,-0.16 -0.16,-0.11 -0.28,-0.25 -0.35,-0.44 0.04,-0.07 0.09,-0.14 0.13,-0.21 0.04,-0.08 0.08,-0.15 0.12,-0.21 0.04,-0.07 0.08,-0.12 0.11,-0.16 0.03,-0.04 0.06,-0.07 0.08,-0.08 -0.03,0.08 -0.04,0.17 -0.04,0.26 0,0.18 0.05,0.32 0.14,0.42 0.1,0.11 0.23,0.16 0.39,0.16 0.17,0 0.3,-0.05 0.4,-0.16 0.1,-0.1 0.15,-0.24 0.15,-0.42 0,-0.18 -0.05,-0.32 -0.15,-0.42 -0.1,-0.1 -0.23,-0.15 -0.4,-0.15 -0.12,0 -0.22,0.02 -0.31,0.07 -0.09,0.04 -0.17,0.1 -0.24,0.18 -0.07,0.07 -0.13,0.15 -0.19,0.25 -0.06,0.09 -0.11,0.19 -0.17,0.29 -0.06,0.09 -0.13,0.19 -0.19,0.28 -0.07,0.1 -0.15,0.18 -0.24,0.26 -0.09,0.07 -0.19,0.13 -0.31,0.17 -0.12,0.05 -0.26,0.07 -0.42,0.07 -0.15,0 -0.29,-0.02 -0.41,-0.07 -0.12,-0.05 -0.23,-0.12 -0.32,-0.2 -0.09,-0.09 -0.15,-0.2 -0.2,-0.32 -0.05,-0.12 -0.07,-0.25 -0.07,-0.4 0,-0.15 0.02,-0.29 0.07,-0.41 0.05,-0.13 0.11,-0.23 0.2,-0.32 0.08,-0.09 0.19,-0.16 0.3,-0.2 0.12,-0.05 0.25,-0.07 0.39,-0.07 0.14,0 0.26,0.02 0.36,0.06 0.09,0.04 0.17,0.1 0.21,0.16l0 -0.97 0.47 0 0 1.24c-0.05,0.06 -0.1,0.12 -0.14,0.19 -0.05,0.07 -0.09,0.14 -0.13,0.2 -0.04,0.06 -0.08,0.12 -0.11,0.18 -0.04,0.06 -0.08,0.1 -0.11,0.14 0,-0.03 0.01,-0.06 0.02,-0.1 0,-0.03 0,-0.07 0,-0.11 0,-0.18 -0.05,-0.32 -0.14,-0.42 -0.1,-0.1 -0.23,-0.15 -0.39,-0.15 -0.17,0 -0.3,0.05 -0.39,0.15 -0.1,0.1 -0.15,0.24 -0.15,0.42 0,0.18 0.05,0.32 0.15,0.42 0.09,0.11 0.22,0.16 0.39,0.16z"/>
   <path class="fil0" d="M6.89 0.05l0.46 0 0 2.7 -0.46 0 0 -2.7z"/>
   <path class="fil1" d="M8.49 2.35c0.19,0 0.34,-0.07 0.43,-0.21l0.51 0c-0.06,0.2 -0.18,0.35 -0.34,0.47 -0.16,0.11 -0.36,0.17 -0.6,0.17 -0.15,0 -0.28,-0.03 -0.41,-0.07 -0.12,-0.05 -0.23,-0.12 -0.32,-0.21 -0.08,-0.08 -0.15,-0.19 -0.2,-0.31 -0.05,-0.13 -0.07,-0.26 -0.07,-0.41 0,-0.15 0.02,-0.29 0.07,-0.41 0.05,-0.12 0.12,-0.23 0.2,-0.32 0.09,-0.08 0.2,-0.15 0.32,-0.2 0.13,-0.04 0.26,-0.07 0.41,-0.07 0.15,0 0.29,0.03 0.41,0.07 0.12,0.05 0.23,0.12 0.31,0.2 0.09,0.09 0.16,0.2 0.21,0.32 0.05,0.12 0.07,0.26 0.07,0.41 0,0.02 0,0.05 0,0.08 0,0.02 -0.01,0.05 -0.01,0.07l-1.51 0c0.03,0.14 0.08,0.24 0.17,0.31 0.09,0.08 0.21,0.11 0.35,0.11zm0.49 -0.84c-0.05,-0.1 -0.11,-0.17 -0.19,-0.23 -0.09,-0.05 -0.19,-0.07 -0.3,-0.07 -0.12,0 -0.22,0.02 -0.3,0.07 -0.08,0.06 -0.14,0.13 -0.19,0.23l0.98 0z"/>
  </g>
 </g>
</svg>
